# xmcd
#
# Track frame offsets:
#	150
#	15179
#	29851
#	47085
#	63224
#	75650
#	88269
#	106318
#	122352
#	137182
#	154222
#	169912
#	183724
#	201262
#	216281
#	229816
#	246397
#	264337
#
# Disc length: 3711
#
# Revision: 1
# Processed by: cddbd v1.5.1PL0 Copyright (c) Steve Scherf et al.
# Submitted via: CDex 1.51
# Normalized: r0:TSWAP
#
DISCID=000e7d12
DTITLE=Various Artist - Promo Only Canada Country February 2001
DYEAR=2001
DGENRE=Country
TTITLE0=Billy Ray Cyrus - Burn Down The Trailer Park
TTITLE1=Clay Davidson - Sometimes
TTITLE2=Vince Gill - Shoot Straight From Your Heart
TTITLE3=Faith Hill - If My Heart Had Wings
TTITLE4=Kenny Rogers - There You Go Again
TTITLE5=Trick Pony - Pour Me
TTITLE6=Travis Tritt - It's A Great Day To Be Alive
TTITLE7=Tyler England - I Drove Her To Dallas
TTITLE8=Patty Loveless - The Last Thing On My Mind
TTITLE9=Tim Rushlow - She Misses Him
TTITLE10=Adam Gregory - No Vacancy
TTITLE11=John Michael Montgomery - That's What I Like About You
TTITLE12=Phil Vassar - Rose Bouquet
TTITLE13=Kenny Chesney - Don't Happen Twice
TTITLE14=Meredith Edwards - A Rose Is A Rose
TTITLE15=Cherie - You Ain't Nothing
TTITLE16=Lace - I Cry Real Tears
TTITLE17=Cledus T. Judd - How Do You Milk A Cow?
EXTD=YEAR: 2001
EXTT0=
EXTT1=
EXTT2=
EXTT3=
EXTT4=
EXTT5=
EXTT6=
EXTT7=
EXTT8=
EXTT9=
EXTT10=
EXTT11=
EXTT12=
EXTT13=
EXTT14=
EXTT15=
EXTT16=
EXTT17=
PLAYORDER=
